<svg xmlns="http://www.w3.org/2000/svg" width="1440" height="980" viewBox="0 0 1440 980" role="img" aria-label="Screenshot artifact of personal-memory-ai initial memory brain graph shell">
  <rect width="1440" height="980" fill="#f3f1ea"/>
  <rect x="24" y="24" width="1392" height="122" fill="#fffdf8" stroke="#d8d2c3"/>
  <text x="46" y="55" fill="#73695c" font-family="Inter, Arial, sans-serif" font-size="13" font-weight="700">PERSONAL-MEMORY-AI · FIRST SCREEN</text>
  <text x="46" y="94" fill="#171717" font-family="Inter, Arial, sans-serif" font-size="38" font-weight="800">Memory brain graph</text>
  <text x="46" y="125" fill="#4d463d" font-family="Inter, Arial, sans-serif" font-size="17">나보다 나를 더 잘 아는 개인 기억 AI.</text>
  <rect x="1070" y="58" width="155" height="42" fill="#171717"/>
  <text x="1090" y="84" fill="#ffffff" font-family="Inter, Arial, sans-serif" font-size="14">Quick diary</text>
  <rect x="1238" y="58" width="145" height="42" fill="#171717"/>
  <text x="1260" y="84" fill="#ffffff" font-family="Inter, Arial, sans-serif" font-size="14">Import preview</text>

  <rect x="24" y="160" width="998" height="94" fill="#fffdf8" stroke="#d8d2c3"/>
  <g font-family="Inter, Arial, sans-serif" font-size="14">
    <rect x="42" y="178" width="294" height="58" fill="#fbfaf6" stroke="#e0dbcf"/>
    <text x="56" y="201" fill="#171717" font-weight="700">Quick diary capture · partial</text>
    <text x="56" y="222" fill="#5b5147">app capture -> MemoryRecord</text>
    <rect x="354" y="178" width="294" height="58" fill="#fbfaf6" stroke="#e0dbcf"/>
    <text x="368" y="201" fill="#171717" font-weight="700">Notion/Obsidian/Markdown · partial</text>
    <text x="368" y="222" fill="#5b5147">P0 imports enter the graph</text>
    <rect x="666" y="178" width="294" height="58" fill="#fbfaf6" stroke="#e0dbcf"/>
    <text x="680" y="201" fill="#171717" font-weight="700">Native app client · skeleton</text>
    <text x="680" y="222" fill="#5b5147">separate from web workspace</text>
  </g>

  <rect x="24" y="268" width="998" height="470" fill="#fffdf8" stroke="#d8d2c3"/>
  <text x="46" y="300" fill="#73695c" font-family="Inter, Arial, sans-serif" font-size="12" font-weight="700">WEB SECOND-BRAIN GRAPH WORKSPACE · IMPLEMENTED</text>
  <text x="46" y="328" fill="#171717" font-family="Inter, Arial, sans-serif" font-size="22" font-weight="800">Daily diary and imported memories are the primary graph nodes</text>
  <rect x="47" y="350" width="950" height="312" fill="#f6f5f1" stroke="#ddd8cc"/>

  <g stroke-opacity="0.42" stroke-width="2">
    <line x1="522" y1="405" x2="190" y2="422" stroke="#d9480f"/>
    <line x1="522" y1="405" x2="245" y2="585" stroke="#1971c2"/>
    <line x1="810" y1="455" x2="850" y2="422" stroke="#5f3dc4"/>
    <line x1="810" y1="565" x2="850" y2="585" stroke="#2b8a3e"/>
    <line x1="320" y1="455" x2="190" y2="422" stroke="#d9480f"/>
    <line x1="320" y1="565" x2="245" y2="585" stroke="#1971c2"/>
    <line x1="690" y1="620" x2="520" y2="628" stroke="#495057"/>
  </g>
  <g font-family="Inter, Arial, sans-serif" text-anchor="middle">
    <circle cx="190" cy="422" r="40" fill="#f8f9fa" stroke="#d9480f" stroke-width="2"/>
    <text x="190" y="421" font-size="13" font-weight="700" fill="#4f463d">emotion</text>
    <circle cx="245" cy="585" r="40" fill="#f8f9fa" stroke="#1971c2" stroke-width="2"/>
    <text x="245" y="584" font-size="13" font-weight="700" fill="#4f463d">project</text>
    <circle cx="850" cy="422" r="40" fill="#f8f9fa" stroke="#5f3dc4" stroke-width="2"/>
    <text x="850" y="421" font-size="13" font-weight="700" fill="#4f463d">decision</text>
    <circle cx="850" cy="585" r="40" fill="#f8f9fa" stroke="#2b8a3e" stroke-width="2"/>
    <text x="850" y="584" font-size="13" font-weight="700" fill="#4f463d">outcome</text>
    <circle cx="520" cy="628" r="40" fill="#f8f9fa" stroke="#495057" stroke-width="2"/>
    <text x="520" y="627" font-size="13" font-weight="700" fill="#4f463d">source</text>
    <circle cx="522" cy="405" r="58" fill="#ffffff" stroke="#151515" stroke-width="2"/>
    <text x="522" y="387" font-size="10" font-weight="700" fill="#6c6256">imported memory</text>
    <text x="522" y="407" font-size="13" font-weight="800" fill="#151515">Anxiety before import</text>
    <text x="522" y="442" font-size="11" fill="#4f463d">notion · 2026-05-01</text>
    <circle cx="810" cy="455" r="58" fill="#ffffff" stroke="#151515" stroke-width="2"/>
    <text x="810" y="437" font-size="10" font-weight="700" fill="#6c6256">imported memory</text>
    <text x="810" y="457" font-size="13" font-weight="800" fill="#151515">Ask launch delay</text>
    <text x="810" y="492" font-size="11" fill="#4f463d">obsidian · 2026-05-13</text>
    <circle cx="810" cy="565" r="58" fill="#ffffff" stroke="#151515" stroke-width="2"/>
    <text x="810" y="547" font-size="10" font-weight="700" fill="#6c6256">imported memory</text>
    <text x="810" y="567" font-size="13" font-weight="800" fill="#151515">Freeze vs features</text>
    <text x="810" y="602" font-size="11" fill="#4f463d">markdown · 2026-05-20</text>
    <circle cx="320" cy="565" r="58" fill="#ffffff" stroke="#151515" stroke-width="2"/>
    <text x="320" y="547" font-size="10" font-weight="700" fill="#6c6256">imported memory</text>
    <text x="320" y="567" font-size="13" font-weight="800" fill="#151515">Calm import check</text>
    <text x="320" y="602" font-size="11" fill="#4f463d">paste · 2026-05-22</text>
    <circle cx="320" cy="455" r="58" fill="#ffffff" stroke="#151515" stroke-width="2"/>
    <text x="320" y="437" font-size="10" font-weight="700" fill="#6c6256">daily diary capture</text>
    <text x="320" y="457" font-size="13" font-weight="800" fill="#151515">Ship import parser</text>
    <text x="320" y="492" font-size="11" fill="#4f463d">mobile · 2026-05-23</text>
  </g>

  <rect x="1040" y="160" width="376" height="760" fill="#fffdf8" stroke="#d8d2c3"/>
  <text x="1062" y="192" fill="#73695c" font-family="Inter, Arial, sans-serif" font-size="12" font-weight="700">EVIDENCE DRAWER · IMPLEMENTED</text>
  <text x="1062" y="220" fill="#171717" font-family="Inter, Arial, sans-serif" font-size="21" font-weight="800">Every action points back to cited memory</text>
  <text x="1062" y="250" fill="#544b41" font-family="Inter, Arial, sans-serif" font-size="14">No generic advice without MemoryRecord citations.</text>
  <g font-family="Inter, Arial, sans-serif" font-size="13">
    <rect x="1062" y="276" width="330" height="94" fill="#fbfaf6" stroke="#e0dbcf"/>
    <text x="1078" y="302" fill="#645b51" font-size="11" font-weight="700">notion · 2026-05-01 · implemented</text>
    <text x="1078" y="328" fill="#332d27">Anxiety before import demo led to graph</text>
    <text x="1078" y="348" fill="#332d27">filter scope expansion and delay.</text>
    <rect x="1062" y="386" width="330" height="94" fill="#fbfaf6" stroke="#e0dbcf"/>
    <text x="1078" y="412" fill="#645b51" font-size="11" font-weight="700">obsidian · 2026-05-13 · implemented</text>
    <text x="1078" y="438" fill="#332d27">Ask My Past Self launch anxiety became</text>
    <text x="1078" y="458" fill="#332d27">onboarding examples and replay controls.</text>
    <rect x="1062" y="496" width="330" height="94" fill="#fbfaf6" stroke="#e0dbcf"/>
    <text x="1078" y="522" fill="#645b51" font-size="11" font-weight="700">markdown · 2026-05-20 · implemented</text>
    <text x="1078" y="548" fill="#332d27">Feature addition postpones launches when</text>
    <text x="1078" y="568" fill="#332d27">anxiety wins over cutting scope.</text>
  </g>
  <g font-family="Inter, Arial, sans-serif">
    <rect x="24" y="756" width="238" height="164" fill="#fffdf8" stroke="#d8d2c3"/>
    <text x="44" y="788" fill="#655b50" font-size="12" font-weight="800">Pattern panel · implemented</text>
    <text x="44" y="820" fill="#171717" font-size="16" font-weight="800">Anxiety -> scope expansion</text>
    <rect x="276" y="756" width="238" height="164" fill="#fffdf8" stroke="#d8d2c3"/>
    <text x="296" y="788" fill="#655b50" font-size="12" font-weight="800">Ask My Past Self · implemented</text>
    <text x="296" y="820" fill="#171717" font-size="16" font-weight="800">Freeze for review</text>
    <rect x="528" y="756" width="238" height="164" fill="#fffdf8" stroke="#d8d2c3"/>
    <text x="548" y="788" fill="#655b50" font-size="12" font-weight="800">Decision Replay · implemented</text>
    <text x="548" y="820" fill="#171717" font-size="16" font-weight="800">Replay similar choices</text>
    <rect x="780" y="756" width="242" height="164" fill="#fffdf8" stroke="#d8d2c3"/>
    <text x="800" y="788" fill="#655b50" font-size="12" font-weight="800">Import preview · partial</text>
    <text x="800" y="820" fill="#171717" font-size="16" font-weight="800">P0 imports visible</text>
  </g>
</svg>
